HIERARCHY
ROOT Hips
{
	OFFSET 0.00000 0.00000 0.00000
	CHANNELS 6 Xposition Yposition Zposition Zrotation Yrotation Xrotation 
	JOINT LHipJoint
	{
		OFFSET 0 0 0
		CHANNELS 3 Zrotation Yrotation Xrotation
		JOINT LeftUpLeg
		{
			OFFSET 1.85742 -1.74412 1.01653
			CHANNELS 3 Zrotation Yrotation Xrotation
			JOINT LeftLeg
			{
				OFFSET 2.54803 -7.00067 0.00000
				CHANNELS 3 Zrotation Yrotation Xrotation
				JOINT LeftFoot
				{
					OFFSET 2.51202 -6.90173 0.00000
					CHANNELS 3 Zrotation Yrotation Xrotation
					JOINT LeftToeBase
					{
						OFFSET 0.17547 -0.48209 1.64281
						CHANNELS 3 Zrotation Yrotation Xrotation
						End Site
						{
							OFFSET 0.00000 -0.00000 0.86587
						}
					}
				}
			}
		}
	}
	JOINT RHipJoint
	{
		OFFSET 0 0 0
		CHANNELS 3 Zrotation Yrotation Xrotation
		JOINT RightUpLeg
		{
			OFFSET -1.95533 -1.74413 1.01654
			CHANNELS 3 Zrotation Yrotation Xrotation
			JOINT RightLeg
			{
				OFFSET -2.49465 -6.85400 0.00000
				CHANNELS 3 Zrotation Yrotation Xrotation
				JOINT RightFoot
				{
					OFFSET -2.54783 -7.00010 0.00000
					CHANNELS 3 Zrotation Yrotation Xrotation
					JOINT RightToeBase
					{
						OFFSET -0.18513 -0.50864 1.69288
						CHANNELS 3 Zrotation Yrotation Xrotation
						End Site
						{
							OFFSET -0.00000 -0.00000 0.89242
						}
					}
				}
			}
		}
	}
	JOINT LowerBack
	{
		OFFSET 0 0 0
		CHANNELS 3 Zrotation Yrotation Xrotation
		JOINT Spine
		{
			OFFSET 0.02173 2.16290 -0.15998
			CHANNELS 3 Zrotation Yrotation Xrotation
			JOINT Spine1
			{
				OFFSET 0.00940 2.17323 -0.00467
				CHANNELS 3 Zrotation Yrotation Xrotation
				JOINT Neck
				{
					OFFSET 0 0 0
					CHANNELS 3 Zrotation Yrotation Xrotation
					JOINT Neck1
					{
						OFFSET 0.01475 1.85823 0.31113
						CHANNELS 3 Zrotation Yrotation Xrotation
						JOINT Head
						{
							OFFSET 0.01902 1.88783 -0.37187
							CHANNELS 3 Zrotation Yrotation Xrotation
							End Site
							{
								OFFSET 0.00489 1.93211 -0.16169
							}
						}
					}
				}
				JOINT LeftShoulder
				{
					OFFSET 0 0 0
					CHANNELS 3 Zrotation Yrotation Xrotation
					JOINT LeftArm
					{
						OFFSET 3.34199 1.32384 -0.07862
						CHANNELS 3 Zrotation Yrotation Xrotation
						JOINT LeftForeArm
						{
							OFFSET 5.27950 -0.00000 0.00000
							CHANNELS 3 Zrotation Yrotation Xrotation
							JOINT LeftHand
							{
								OFFSET 3.53504 -0.00000 0.00000
								CHANNELS 3 Zrotation Yrotation Xrotation
								JOINT LeftFingerBase
								{
									OFFSET 0 0 0
									CHANNELS 3 Zrotation Yrotation Xrotation
									JOINT LeftHandIndex1
									{
										OFFSET 0.66795 -0.00000 0.00000
										CHANNELS 3 Zrotation Yrotation Xrotation
										End Site
										{
											OFFSET 0.53852 -0.00000 0.00000
										}
									}
								}
								JOINT LThumb
								{
									OFFSET 0 0 0
									CHANNELS 3 Zrotation Yrotation Xrotation
									End Site
									{
										OFFSET 0.54674 -0.00000 0.54674
									}
								}
							}
						}
					}
				}
				JOINT RightShoulder
				{
					OFFSET 0 0 0
					CHANNELS 3 Zrotation Yrotation Xrotation
					JOINT RightArm
					{
						OFFSET -3.16149 1.45719 -0.50507
						CHANNELS 3 Zrotation Yrotation Xrotation
						JOINT RightForeArm
						{
							OFFSET -5.25035 -0.00000 0.00000
							CHANNELS 3 Zrotation Yrotation Xrotation
							JOINT RightHand
							{
								OFFSET -3.58884 -0.00000 0.00000
								CHANNELS 3 Zrotation Yrotation Xrotation
								JOINT RightFingerBase
								{
									OFFSET 0 0 0
									CHANNELS 3 Zrotation Yrotation Xrotation
									JOINT RightHandIndex1
									{
										OFFSET -0.77924 -0.00000 0.00000
										CHANNELS 3 Zrotation Yrotation Xrotation
										End Site
										{
											OFFSET -0.62824 -0.00000 0.00000
										}
									}
								}
								JOINT RThumb
								{
									OFFSET 0 0 0
									CHANNELS 3 Zrotation Yrotation Xrotation
									End Site
									{
										OFFSET -0.63783 -0.00000 0.63783
									}
								}
							}
						}
					}
				}
			}
		}
	}
}
MOTION
Frames: 12
Frame Time: .0083333
-20.3912 17.383 -2.965 0 0 0 0 0 0 -21 0 0 0 0 0 0 0 0 0 0 0 0 0 0 21 0 0 0 0 0 0 0 0 0 0 0 0 0 0 0 0 0 0 0 0 0 0 -16 0 0 21 0 0 11 0 0 0 -8 0 0 0 0 0 0 0 0 0 0 0 0 0 0 0 0 0 0 0 0 8 0 0 0 0 0 0 0 0 0 0 0 0 0 0 0 0 0
-20.3912 17.3830 -2.9650 -106.6060 87.9120 -101.5120 0.0000 0.0000 0.0000 -16.0823 -28.9637 -3.8911 2.2243 9.3185 26.7967 0.3991 22.6629 -34.3735 2.1080 -9.0874 -26.0691 0.0000 0.0000 0.0000 22.9525 35.5777 4.3746 -1.1628 -6.8455 19.2583 1.3245 -32.5538 -39.6448 -1.2720 -7.1482 20.1552 -0.1088 1.1255 0.1676 0.4674 1.5161 -1.5273 0.5146 0.7666 -1.6732 0.8624 0.6740 -23.3791 2.7218 0.2805 32.7832 1.1270 0.8758 15.4614 0.0000 -0.0000 0.0000 -86.8866 5.4500 31.3014 16.8537 -26.6645 -4.0215 -0.0000 0.0000 -31.4206 40.0271 49.2179 32.4553 -7.1250 0.0000 -0.0000 -18.8013 86.3438 -17.5879 0.0000 -0.0000 0.0000 84.4044 -4.0916 21.2313 -15.5001 24.8382 -3.4333 0.0000 0.0000 2.9345 -22.0447 14.7444 -5.8840 7.1250 -0.0000 -0.0000 3.7178 -14.1528 2.7017
-20.3891 17.3878 -2.9572 -109.4670 87.8314 -104.3130 0.0000 0.0000 0.0000 -16.1457 -29.8264 -3.5312 2.2271 9.3239 26.8137 0.3920 23.0956 -34.8729 1.8707 -8.5915 -24.5255 0.0000 0.0000 0.0000 22.9852 35.4619 4.3520 -1.1458 -6.7971 19.1156 1.3685 -32.6172 -39.5395 -1.2615 -7.1197 20.0705 -0.0556 1.1136 0.1321 0.4163 1.4990 -1.4660 0.4344 0.7565 -1.5874 0.9840 0.7718 -23.5301 2.7585 0.3533 32.7600 1.1368 0.9257 15.4847 -0.0000 0.0000 0.0000 -86.7301 5.2585 30.3258 16.5064 -26.2025 -3.8669 -0.0000 0.0000 -29.5007 36.3903 50.3486 29.5727 -7.1250 0.0000 -0.0000 -38.6307 85.2742 -35.5834 -0.0000 0.0000 0.0000 84.5754 -3.8922 20.7538 -15.2702 24.5211 -3.3373 0.0000 0.0000 3.3762 -21.5484 20.8075 -7.9850 7.1250 -0.0000 -0.0000 4.4654 -7.8120 3.8290
-20.3883 17.3902 -2.9528 -112.7660 87.7886 -107.5770 0.0000 0.0000 0.0000 -16.1286 -29.9938 -3.4921 2.2164 9.3029 26.7475 0.1331 23.7407 -34.2109 1.8979 -8.6500 -24.7065 0.0000 0.0000 0.0000 22.9651 35.3542 4.2562 -1.1496 -6.8078 19.1473 1.5679 -32.9657 -39.1651 -1.1143 -6.7063 18.8481 -0.0177 1.0853 0.1577 0.3651 1.4600 -1.4134 0.3615 0.7357 -1.5452 1.1172 0.8709 -23.7221 2.7398 0.4449 32.8268 1.1280 0.9787 15.5599 0.0000 -0.0000 0.0000 -86.6297 5.2063 29.8399 16.1866 -25.7730 -3.7267 -0.0000 0.0000 -29.1294 35.6673 49.8686 28.7551 -7.1250 0.0000 -0.0000 -34.9803 84.6487 -31.7936 0.0000 -0.0000 0.0000 84.6417 -3.7354 20.4253 -15.0514 24.2177 -3.2470 0.0000 0.0000 3.6496 -21.6028 20.6482 -7.9492 7.1250 -0.0000 -0.0000 4.4173 -7.9707 3.7736
-20.3880 17.3923 -2.9493 -116.0410 87.7887 -110.7950 0.0000 0.0000 0.0000 -16.0958 -29.9168 -3.6343 2.2104 9.2912 26.7104 0.0322 23.8685 -33.7860 1.8807 -8.6130 -24.5919 0.0000 0.0000 0.0000 22.8745 35.2553 4.1552 -1.1475 -6.8019 19.1297 1.9156 -33.5653 -38.5047 -0.8486 -5.8752 16.4228 -0.0427 1.0558 0.1601 0.3184 1.4189 -1.3515 0.3291 0.7148 -1.4822 1.2353 0.9461 -23.9446 2.7370 0.4956 32.8459 1.1194 1.0132 15.6202 -0.0000 -0.0000 0.0000 -86.5698 5.2051 29.4936 16.1073 -25.6660 -3.6923 -0.0000 0.0000 -29.4121 36.5761 49.9650 29.6021 -7.1250 0.0000 -0.0000 -34.5577 85.1506 -31.7101 -0.0000 -0.0000 0.0000 84.6852 -3.6097 20.1117 -14.8735 23.9696 -3.1744 0.0000 0.0000 3.8498 -21.5772 20.5384 -7.8990 7.1250 -0.0000 -0.0000 4.4245 -8.0899 3.7694
-20.3884 17.3920 -2.9447 -119.6430 87.7571 -114.3750 0.0000 0.0000 0.0000 -16.0665 -29.8643 -3.7366 2.2063 9.2831 26.6850 0.3201 23.0959 -34.4620 1.5998 -7.9774 -22.6456 0.0000 0.0000 0.0000 22.8051 35.1275 4.0780 -1.1451 -6.7950 19.1095 2.0505 -33.7815 -38.2203 -0.7486 -5.5267 15.4170 -0.0817 1.0137 0.2244 0.2957 1.3611 -1.2854 0.3280 0.6857 -1.4505 1.3119 0.9636 -24.1636 2.7474 0.4678 32.7952 1.1057 1.0095 15.6471 0.0000 -0.0000 0.0000 -86.5405 5.2041 28.9769 16.1342 -25.7023 -3.7040 -0.0000 0.0000 -29.3129 36.5984 50.6593 29.8703 -7.1250 0.0000 -0.0000 -41.8021 85.5343 -38.7366 0.0000 -0.0000 0.0000 84.7108 -3.4888 19.9046 -14.6841 23.7042 -3.0978 0.0000 0.0000 3.9935 -21.7368 20.4111 -7.9159 7.1250 -0.0000 -0.0000 4.3118 -8.1994 3.6635
-20.3885 17.3929 -2.9403 -122.8070 87.6661 -117.5420 0.0000 0.0000 0.0000 -15.9866 -29.7759 -3.8272 2.2053 9.2812 26.6790 0.9178 21.5314 -35.9436 1.0552 -6.5318 -18.3353 0.0000 0.0000 0.0000 22.8002 34.9767 4.0369 -1.1393 -6.7784 19.0605 2.0726 -33.8040 -38.1496 -0.7605 -5.5692 15.5395 -0.1097 0.9155 0.3293 0.2972 1.2283 -1.1600 0.3467 0.6189 -1.3806 1.5012 1.0611 -24.6177 2.6833 0.5241 32.7982 1.0615 1.0428 15.7533 0.0000 -0.0000 0.0000 -86.5612 5.0741 28.1858 15.9714 -25.4819 -3.6337 -0.0000 0.0000 -28.7464 35.9621 50.7758 29.3384 -7.1250 0.0000 -0.0000 -43.5271 85.2739 -40.1715 0.0000 -0.0000 0.0000 84.7140 -3.1596 19.8581 -14.4263 23.3409 -2.9950 0.0000 0.0000 4.2179 -21.8649 20.4374 -7.9765 7.1250 -0.0000 -0.0000 4.2320 -8.1521 3.5992
-20.3874 17.3961 -2.9364 -125.1350 87.5263 -119.8330 0.0000 0.0000 0.0000 -15.8112 -29.6180 -4.0159 2.2083 9.2871 26.6975 0.6861 21.7811 -34.9492 1.5033 -7.7443 -21.9401 0.0000 0.0000 0.0000 22.8346 34.8285 3.9782 -1.1291 -6.7490 18.9740 2.1224 -33.8885 -38.0529 -0.7310 -5.4626 15.2328 -0.0500 0.9147 0.3588 0.3478 1.2287 -1.1652 0.3646 0.6189 -1.4023 1.2727 1.0016 -24.5869 2.8708 0.4640 32.7110 1.1662 1.0150 15.7034 0.0000 -0.0000 0.0000 -86.6908 5.1977 27.9530 15.9185 -25.4100 -3.6109 -0.0000 0.0000 -28.7266 36.6772 50.9664 30.0499 -7.1250 0.0000 -0.0000 -45.3624 85.7116 -42.2276 0.0000 -0.0000 0.0000 84.6198 -3.1805 19.5078 -14.2406 23.0776 -2.9218 0.0000 0.0000 4.3908 -21.4001 20.7287 -7.8971 7.1250 -0.0000 -0.0000 4.5534 -7.9172 3.8954
-20.3868 17.3976 -2.9333 -128.0360 87.3621 -122.6770 0.0000 0.0000 0.0000 -15.6265 -29.4471 -4.2647 2.2122 9.2947 26.7215 0.9079 20.9948 -35.2945 1.2273 -7.0261 -19.7927 0.0000 0.0000 0.0000 22.8399 34.6409 3.8935 -1.1182 -6.7176 18.8813 2.1196 -33.8725 -38.0370 -0.7277 -5.4505 15.1980 -0.0255 0.8802 0.4077 0.4062 1.1842 -1.1957 0.4102 0.5970 -1.4615 1.1137 0.9405 -24.5536 2.9827 0.3982 32.6164 1.2248 0.9819 15.6504 0.0000 -0.0000 0.0000 -86.8163 5.3258 27.6682 15.8576 -25.3271 -3.5848 -0.0000 0.0000 -28.8096 37.1169 50.9702 30.4497 -7.1250 0.0000 -0.0000 -45.2607 85.9322 -42.2965 0.0000 -0.0000 0.0000 84.4990 -3.2237 19.3239 -14.0578 22.8173 -2.8505 0.0000 0.0000 4.4693 -21.4267 20.5394 -7.8395 7.1250 -0.0000 -0.0000 4.5208 -8.1117 3.8500
-20.3853 17.3984 -2.9296 -131.9680 87.2459 -126.5640 0.0000 0.0000 0.0000 -15.5575 -29.3334 -4.4524 2.2122 9.2948 26.7221 0.4514 21.8406 -33.6629 1.9390 -8.7379 -24.9788 0.0000 0.0000 0.0000 22.7677 34.4235 3.8232 -1.1121 -6.6997 18.8288 1.9285 -33.5262 -38.3682 -0.8842 -5.9942 16.7675 -0.0944 0.8257 0.4511 0.4304 1.1115 -1.2308 0.4737 0.5618 -1.5230 1.1444 0.9028 -24.4877 2.9078 0.3552 32.5170 1.1751 0.9540 15.5889 0.0000 0.0000 0.0000 -86.9134 5.4339 27.2011 15.7496 -25.1800 -3.5388 -0.0000 0.0000 -28.9135 37.1875 50.6382 30.3956 -7.1250 0.0000 -0.0000 -41.0909 85.8179 -38.2647 0.0000 0.0000 0.0000 84.4170 -3.2750 19.2858 -13.8601 22.5343 -2.7743 0.0000 0.0000 4.6146 -21.2427 20.6092 -7.7914 7.1250 -0.0000 -0.0000 4.6442 -8.0664 3.9599
-20.3831 17.3987 -2.9244 -136.5530 87.1784 -131.1050 0.0000 0.0000 0.0000 -15.6221 -29.4307 -4.5088 2.2110 9.2923 26.7142 0.2979 22.0976 -33.0602 2.2414 -9.3517 -26.9018 0.0000 0.0000 0.0000 22.6279 34.2055 3.7687 -1.1068 -6.6844 18.7837 1.7569 -33.2248 -38.6862 -1.0325 -6.4633 18.1347 -0.2111 0.7962 0.4683 0.3999 1.0705 -1.2621 0.5080 0.5426 -1.5660 1.1342 0.8403 -24.4189 2.9304 0.2589 32.4358 1.1641 0.9145 15.5363 0.0000 -0.0000 0.0000 -86.9253 5.5249 26.9977 15.6407 -25.0311 -3.4926 -0.0000 0.0000 -28.7349 37.1858 50.4220 30.3164 -7.1250 0.0000 -0.0000 -38.5576 85.7083 -35.8029 0.0000 -0.0000 0.0000 84.4100 -3.3758 19.2665 -13.7056 22.3123 -2.7154 0.0000 0.0000 4.7811 -21.4278 20.4747 -7.8166 7.1250 -0.0000 -0.0000 4.5148 -8.1794 3.8388
-20.3825 17.3998 -2.9200 -139.9920 87.0747 -134.4930 0.0000 0.0000 0.0000 -15.6558 -29.6866 -4.5156 2.2132 9.2967 26.7279 0.5382 21.5337 -33.8041 1.9053 -8.6659 -24.7556 0.0000 0.0000 0.0000 22.5244 34.0185 3.6890 -1.0972 -6.6561 18.7004 1.9864 -33.6169 -38.2411 -0.8699 -5.9468 16.6302 -0.2424 0.7873 0.5007 0.3670 1.0578 -1.2859 0.4914 0.5366 -1.6083 0.9783 0.7522 -24.3980 3.1249 0.1225 32.3625 1.2441 0.8661 15.4989 0.0000 0.0000 0.0000 -86.8756 5.5629 26.9626 15.5493 -24.9057 -3.4540 -0.0000 0.0000 -28.7371 36.9299 50.5256 30.1222 -7.1250 0.0000 -0.0000 -40.0017 85.6338 -37.1113 0.0000 0.0000 0.0000 84.4263 -3.7171 19.2188 -13.7113 22.3205 -2.7175 0.0000 0.0000 4.7994 -21.6597 20.2455 -7.8249 7.1250 -0.0000 -0.0000 4.3475 -8.3850 3.6780
